<?xml version="1.0" encoding="UTF-8" standalone="no"?>
<svg
   xmlns:dc="http://purl.org/dc/elements/1.1/"
   xmlns:cc="http://creativecommons.org/ns#"
   xmlns:rdf="http://www.w3.org/1999/02/22-rdf-syntax-ns#"
   xmlns:svg="http://www.w3.org/2000/svg"
   xmlns="http://www.w3.org/2000/svg"
   xmlns:xlink="http://www.w3.org/1999/xlink"
   xmlns:sodipodi="http://sodipodi.sourceforge.net/DTD/sodipodi-0.dtd"
   xmlns:inkscape="http://www.inkscape.org/namespaces/inkscape"
   width="314.86499"
   height="36.048"
   viewBox="0 0 314.86499 36.048"
   version="1.1"
   id="svg13"
   sodipodi:docname="MEDIA HATCH.svg"
   inkscape:version="0.92.1 r15371">
  <metadata
     id="metadata17">
    <rdf:RDF>
      <cc:Work
         rdf:about="">
        <dc:format>image/svg+xml</dc:format>
        <dc:type
           rdf:resource="http://purl.org/dc/dcmitype/StillImage" />
        <dc:title>MEDIA HATCH</dc:title>
      </cc:Work>
    </rdf:RDF>
  </metadata>
  <sodipodi:namedview
     pagecolor="#ffffff"
     bordercolor="#666666"
     borderopacity="1"
     objecttolerance="10"
     gridtolerance="10"
     guidetolerance="10"
     inkscape:pageopacity="0"
     inkscape:pageshadow="2"
     inkscape:window-width="1920"
     inkscape:window-height="1017"
     id="namedview15"
     showgrid="false"
     fit-margin-top="0"
     fit-margin-left="0"
     fit-margin-right="0"
     fit-margin-bottom="0"
     inkscape:zoom="25.572573"
     inkscape:cx="213.077"
     inkscape:cy="50.881449"
     inkscape:window-x="-8"
     inkscape:window-y="-8"
     inkscape:window-maximized="1"
     inkscape:current-layer="svg13" />
  <title
     id="title2">MEDIA HATCH</title>
  <desc
     id="desc4">Created using Figma</desc>
  <g
     id="Canvas"
     transform="translate(612.965,6285.048)">
    <g
       id="MEDIA HATCH">
      <use
         xlink:href="#path0_fill"
         transform="translate(-615.845,-6285)"
         id="use6"
         style="fill:#ffffff"
         x="0"
         y="0"
         width="100%"
         height="100%" />
    </g>
  </g>
  <defs
     id="defs11">
    <path
       id="path0_fill"
       d="M 6.864,0 H 3.504 C 3.168,0 2.88,0.24 2.88,0.624 v 35.328 h 3.888 c 0.336,0 0.624,-0.288 0.624,-0.624 V 7.296 l 10.032,19.056 c 0.192,0.336 0.576,0.576 0.96,0.576 h 3.504 c 0.384,0 0.768,-0.24 0.96,-0.576 L 32.88,7.296 v 28.032 c 0,0.336 0.288,0.624 0.624,0.624 h 3.888 V 0.624 C 37.392,0.24 37.104,0 36.768,0 h -3.36 c -0.48,0 -1.056,0.336 -1.296,0.768 l -12,21.888 L 8.16,0.768 C 7.92,0.336 7.344,0 6.864,0 Z m 44.5354,4.08 h 15.552 c 0.336,0 0.624,-0.288 0.624,-0.624 v -3.504 h -16.176 c -4.512,0 -8.16,3.648 -8.16,8.16 V 27.84 c 0,4.512 3.648,8.16 8.16,8.16 h 16.176 v -3.504 c 0,-0.336 -0.288,-0.624 -0.624,-0.624 h -15.552 c -2.016,0 -3.648,-1.632 -3.648,-3.648 v -8.208 h 17.52 c 0.336,0 0.624,-0.288 0.624,-0.624 v -3.504 h -15.792 c -1.008,0 -1.872,0.384 -2.352,0.96 v -9.12 c 0,-2.016 1.632,-3.648 3.648,-3.648 z M 74.8538,36 h 15.408 c 4.512,0 8.16,-3.696 8.16,-8.16 V 8.112 c 0,-4.512 -3.648,-8.16 -8.16,-8.16 h -15.408 c -1.536,0 -2.7841,1.248 -2.7841,2.784 v 30.48 c 0,1.536 1.2481,2.784 2.7841,2.784 z m 2.64,-4.128 c -0.5281,0 -0.9121,-0.432 -0.9121,-0.912 V 4.992 c 0,-0.528 0.384,-0.912 0.9121,-0.912 h 12.768 c 2.016,0 3.648,1.632 3.648,3.648 v 20.496 c 0,2.016 -1.632,3.648 -3.648,3.648 z M 105.762,36 h 3.888 V 0.576 c 0,-0.336 -0.288,-0.624 -0.624,-0.624 h -3.888 v 35.424 c 0,0.336 0.288,0.624 0.624,0.624 z M 135.713,0.288 c -0.096,-0.192 -0.336,-0.336 -0.576,-0.336 h -5.712 c -1.728,0 -3.216,1.104 -3.792,2.688 L 113.921,36 h 3.936 c 0.384,0 0.768,-0.288 0.864,-0.624 l 3.216,-9.264 h 18.336 l 3.216,9.264 c 0.096,0.336 0.432,0.624 0.864,0.624 h 3.936 z m -12.336,21.696 6,-17.28 c 0.144,-0.384 0.48,-0.624 0.864,-0.624 h 2.352 l 6.24,17.904 z m 69.215,-22.032 c -0.336,0 -0.624,0.288 -0.624,0.624 V 15.888 H 174.736 V 0.576 c 0,-0.336 -0.288,-0.624 -0.624,-0.624 h -3.888 V 36 h 3.888 c 0.336,0 0.624,-0.288 0.624,-0.624 v -15.36 h 17.232 v 15.36 c 0,0.336 0.288,0.624 0.624,0.624 h 3.888 V -0.048 Z m 29.23,0.336 c -0.096,-0.192 -0.336,-0.336 -0.576,-0.336 h -5.712 c -1.728,0 -3.216,1.104 -3.792,2.688 L 200.03,36 h 3.936 c 0.384,0 0.768,-0.288 0.864,-0.624 l 3.216,-9.264 h 18.336 l 3.216,9.264 c 0.096,0.336 0.432,0.624 0.864,0.624 h 3.936 z m -12.336,21.696 6,-17.28 C 215.63,4.32 215.966,4.08 216.35,4.08 h 2.352 l 6.24,17.904 z m 23.518,-22.032 c -0.336,0 -0.624,0.288 -0.624,0.624 V 4.08 h 10.752 V 36 h 3.888 c 0.384,0 0.624,-0.288 0.624,-0.624 V 4.08 h 10.272 c 0.336,0 0.624,-0.288 0.624,-0.624 v -3.504 z m 29.235,27.888 c 0,4.464 3.648,8.16 8.16,8.16 h 15.84 v -3.504 c 0,-0.336 -0.288,-0.624 -0.624,-0.624 h -15.216 c -2.016,0 -3.648,-1.632 -3.648,-3.648 V 7.728 c 0,-2.016 1.632,-3.648 3.648,-3.648 h 15.216 c 0.336,0 0.624,-0.288 0.624,-0.624 v -3.504 h -15.84 c -4.512,0 -8.16,3.648 -8.16,8.16 z m 51.618,-27.888 c -0.336,0 -0.624,0.288 -0.624,0.624 V 15.888 H 296.001 V 0.576 c 0,-0.336 -0.288,-0.624 -0.624,-0.624 h -3.888 V 36 h 3.888 c 0.336,0 0.624,-0.288 0.624,-0.624 v -15.36 h 17.232 v 15.36 c 0,0.336 0.288,0.624 0.624,0.624 h 3.888 V -0.048 Z"
       inkscape:connector-curvature="0" />
  </defs>
</svg>
